<?xml version="1.0" encoding="UTF-8"?>
<!DOCTYPE svg PUBLIC "-//W3C//DTD SVG 1.1//EN" "http://www.w3.org/Graphics/SVG/1.1/DTD/svg11.dtd">
<svg xmlns="http://www.w3.org/2000/svg" version="1.1" width="285px" height="354px" style="shape-rendering:geometricPrecision; text-rendering:geometricPrecision; image-rendering:optimizeQuality; fill-rule:evenodd; clip-rule:evenodd" xmlns:xlink="http://www.w3.org/1999/xlink">
<g><path style="opacity:1" fill="#fefefe" d="M -0.5,-0.5 C 94.5,-0.5 189.5,-0.5 284.5,-0.5C 284.5,117.5 284.5,235.5 284.5,353.5C 189.5,353.5 94.5,353.5 -0.5,353.5C -0.5,235.5 -0.5,117.5 -0.5,-0.5 Z"/></g>
<g><path style="opacity:1" fill="#4ec5f3" d="M 163.5,48.5 C 176.587,50.4597 187.421,56.4597 196,66.5C 200.785,76.093 199.285,84.7597 191.5,92.5C 179.829,98.6705 167.829,104.17 155.5,109C 144.979,114.203 139.645,122.703 139.5,134.5C 139.745,140.792 140.912,146.792 143,152.5C 137.445,147.004 134.945,140.337 135.5,132.5C 134.988,124.861 137.321,118.361 142.5,113C 124.024,110.961 108.857,117.794 97,133.5C 94.4964,137.508 92.8297,141.841 92,146.5C 91.8311,153.524 91.3311,160.524 90.5,167.5C 73.0495,144.469 69.3829,119.469 79.5,92.5C 81.8817,90.1073 84.0483,87.4406 86,84.5C 86.9699,80.8372 88.6366,77.5039 91,74.5C 96.4845,70.3536 101.984,66.1869 107.5,62C 108.337,60.9887 108.67,59.8221 108.5,58.5C 110.144,58.2865 111.644,58.6198 113,59.5C 120.718,52.0059 129.884,48.6725 140.5,49.5C 140.167,50.1667 139.833,50.8333 139.5,51.5C 143.22,54.4754 144.887,53.4754 144.5,48.5C 150.833,48.5 157.167,48.5 163.5,48.5 Z"/></g>
<g><path style="opacity:1" fill="#62c4e8" d="M 163.5,48.5 C 157.167,48.5 150.833,48.5 144.5,48.5C 144.887,53.4754 143.22,54.4754 139.5,51.5C 139.833,50.8333 140.167,50.1667 140.5,49.5C 129.884,48.6725 120.718,52.0059 113,59.5C 111.644,58.6198 110.144,58.2865 108.5,58.5C 108.67,59.8221 108.337,60.9887 107.5,62C 101.984,66.1869 96.4845,70.3536 91,74.5C 88.6366,77.5039 86.9699,80.8372 86,84.5C 84.0483,87.4406 81.8817,90.1073 79.5,92.5C 93.1415,62.4046 116.642,46.7379 150,45.5C 154.677,46.1029 159.177,47.1029 163.5,48.5 Z"/></g>
<g><path style="opacity:1" fill="#71c5e8" d="M 169.5,112.5 C 175.488,112.664 176.821,115.164 173.5,120C 167.398,120.223 166.064,117.723 169.5,112.5 Z"/></g>
<g><path style="opacity:1" fill="#53c6f1" d="M 208.5,77.5 C 229.69,112.243 226.356,144.743 198.5,175C 194.244,178.753 189.577,181.92 184.5,184.5C 183.148,166.054 187.981,149.387 199,134.5C 203.183,125.31 206.349,115.81 208.5,106C 209.624,96.9256 209.624,87.4256 208.5,77.5 Z"/></g>
<g><path style="opacity:1" fill="#58c5ec" d="M 133.5,166.5 C 146.228,165.318 155.062,170.651 160,182.5C 160.499,186.152 160.665,189.818 160.5,193.5C 145.987,196.028 131.987,194.361 118.5,188.5C 117.353,186.235 117.186,183.902 118,181.5C 121.491,174.552 126.658,169.552 133.5,166.5 Z"/></g>
<g><path style="opacity:1" fill="#4cc5f5" d="M 134.5,168.5 C 140.115,168.24 145.449,169.24 150.5,171.5C 150.719,172.675 150.386,173.675 149.5,174.5C 146.904,173.324 144.404,171.99 142,170.5C 138.088,171.571 134.255,172.905 130.5,174.5C 134.806,174.325 139.14,174.325 143.5,174.5C 142.75,178.799 142.916,183.132 144,187.5C 145,188.167 146,188.833 147,189.5C 148.584,188.139 150.418,187.472 152.5,187.5C 150.994,183.487 151.661,179.82 154.5,176.5C 157.474,181.356 158.808,186.689 158.5,192.5C 151.825,192.666 145.158,192.5 138.5,192C 134.687,190.738 130.687,190.071 126.5,190C 127.428,189.612 128.095,188.945 128.5,188C 125.812,185.246 123.479,182.246 121.5,179C 122.651,177.177 123.818,175.344 125,173.5C 125.333,174.167 125.667,174.833 126,175.5C 126.71,174.027 127.876,173.36 129.5,173.5C 129.281,172.325 129.614,171.325 130.5,170.5C 132.026,170.006 133.359,169.339 134.5,168.5 Z"/></g>
<g><path style="opacity:1" fill="#7d7d7f" d="M 58.5,217.5 C 66.7782,217.336 74.4448,219.503 81.5,224C 84.5314,226.559 86.6981,229.726 88,233.5C 88.4736,260.147 88.6403,286.647 88.5,313C 85.8056,318.361 81.8056,322.361 76.5,325C 68.7278,326.826 60.8945,327.993 53,328.5C 41.1041,327.27 33.4375,320.936 30,309.5C 29.3333,284.833 29.3333,260.167 30,235.5C 31.4567,229.049 35.1234,224.382 41,221.5C 46.8204,219.48 52.6538,218.147 58.5,217.5 Z"/></g>
<g><path style="opacity:1" fill="#7e7e80" d="M 131.5,218.5 C 145.409,220.077 153.409,227.743 155.5,241.5C 154.171,262.696 154.171,283.863 155.5,305C 154.171,318.329 146.837,325.663 133.5,327C 123.5,327.667 113.5,327.667 103.5,327C 101.741,325.992 100.574,324.492 100,322.5C 99.3333,289.5 99.3333,256.5 100,223.5C 100.465,222.069 101.299,220.903 102.5,220C 112.342,219.83 122.009,219.33 131.5,218.5 Z"/></g>
<g><path style="opacity:1" fill="#7d7d7f" d="M 223.5,219.5 C 226.5,219.5 229.5,219.5 232.5,219.5C 232.333,235.503 232.5,251.503 233,267.5C 240.833,251.833 248.667,236.167 256.5,220.5C 259.428,219.516 262.428,219.183 265.5,219.5C 265.657,220.873 265.49,222.207 265,223.5C 256.697,239.938 248.531,256.438 240.5,273C 248.673,289.535 256.84,306.035 265,322.5C 265.494,324.134 265.66,325.801 265.5,327.5C 262.552,327.777 259.719,327.444 257,326.5C 249.271,310.708 241.271,295.042 233,279.5C 232.667,295.167 232.333,310.833 232,326.5C 229.281,327.444 226.448,327.777 223.5,327.5C 223.5,291.5 223.5,255.5 223.5,219.5 Z"/></g>
<g><path style="opacity:1" fill="#fefefe" d="M 119.5,233.5 C 123.182,233.335 126.848,233.501 130.5,234C 132.667,234.833 134.167,236.333 135,238.5C 135.167,249.833 135.333,261.167 135.5,272.5C 135.637,284.9 135.137,297.234 134,309.5C 129.641,312.257 124.808,313.257 119.5,312.5C 119.5,286.167 119.5,259.833 119.5,233.5 Z"/></g>
<g><path style="opacity:1" fill="#fbfbfb" d="M 55.5,235.5 C 59.6034,234.769 63.1034,235.769 66,238.5C 66.6667,261.5 66.6667,284.5 66,307.5C 60.9334,313.088 56.2667,312.755 52,306.5C 51.3333,284.167 51.3333,261.833 52,239.5C 53.0319,237.973 54.1986,236.64 55.5,235.5 Z"/></g>
<g><path style="opacity:1" fill="#7e7e80" d="M 179.5,219.5 C 185.758,219.19 191.924,219.524 198,220.5C 202.26,243.929 205.926,267.596 209,291.5C 210.991,302.056 212.824,312.89 214.5,324C 214.245,325.326 213.578,326.326 212.5,327C 208.683,328.023 205.183,327.523 202,325.5C 200.443,310.658 197.943,295.824 194.5,281C 195.059,280.275 195.392,279.442 195.5,278.5C 192.267,262.3 189.933,245.967 188.5,229.5C 186.606,247.409 183.939,265.409 180.5,283.5C 180.608,284.442 180.941,285.275 181.5,286C 178.855,298.807 176.688,311.64 175,324.5C 174.626,325.416 174.126,326.25 173.5,327C 169.909,327.789 166.409,327.622 163,326.5C 163.547,319.533 164.213,312.533 165,305.5C 169.144,276.643 173.978,247.976 179.5,219.5 Z"/></g>
</svg>
